<svg xmlns="http://www.w3.org/2000/svg" viewBox="0 0 230.14 138.92"><defs><style>.cls-1{opacity:0.09;}.cls-2{fill:#b90045;}</style></defs><title>Asset 4</title><g id="Layer_2" data-name="Layer 2"><g id="Layer_1-2" data-name="Layer 1"><g class="cls-1"><path d="M79.68,57c0,3.47-6.86-.33-6.86-4.12,0-10.66,2.94-15.7,5.29-24.4C70.27,37.23,59.8,48.87,59.8,48.87s-4.12,4.32-5.1.78C52.15,40.24,53.92,29.9,57,21.34,41.42,36.57,38.48,58,38.48,58c0,4-6.87-.39-6.87-4.77,0-13.54,1.25-21.26,7.39-41a32.61,32.61,0,0,0,1.18-5.3c-.85-3.14-21,10.92-28.71,9.88-8-1.05-9.81-9.16-7.59-12.43,0,0,.92-2.48,4.19-1.63s3.27,7.52,14.78,4.77C32.07,5.25,39.53.15,44.69,2.7c2.16,1,4.52,2.29,4.52,5.23.26,3.66-3.08,11.51-6.09,21.78C48.36,19.24,57.19,6.49,62.55,4.14c7.26-3.21,12.55,0,14,2.61a1.75,1.75,0,0,1,.07,1.7v.07C66,23,61.76,33,60.26,39.52,65.75,32.78,78.7,16,79.55,8.65V8.52S89,4.4,89.69,9.83C91.06,29.84,79.68,37,79.68,57Z"/><path d="M98,26.31a2.18,2.18,0,0,1,0,2.15c-.39.79-4.57,15-3.72,16.94s5.82-7.06,6.21-8c0,0,2.75,1.31,2.35,3.27S93.61,56.52,90.15,56.52s-3.67-6.47-3.21-10.92c.59-5.69,4.38-21.32,4.38-21.32S95.71,22.32,98,26.31Zm.33-9.94a4.12,4.12,0,1,1,4.12-4.12A4.11,4.11,0,0,1,98.32,16.37Z"/><path d="M115.65,43.77c3.47,4.9-.06,12.1-6.41,13.14-9.09,1.51-10.26-8.11-10.4-9.15-1-7,1.77-9.49,2.36-8.5,1.31,2,2.61,11.83,5.36,10.59,5.36-2.42-1.18-8.11-4.31-15.43-3.54-8.11.58-15,9.35-16.62s13.86,4,12.55,10.47-6,9-9.28,8.3c-1.77-.32-2.82-2.15-2.42-4.44.52-3-.2-4.52-1.38-4.71C105.65,26.44,108.33,33.24,115.65,43.77Z"/><path d="M136.38,21.07c-3.14,9-7.71,23-7.19,24.33.85,2,5.82-7.06,6.21-8,0,0,2.75,1.31,2.36,3.27s-9.23,15.89-12.69,15.89-3.66-6.47-3.21-10.92c.33-3.21,3.86-14.91,6.94-24.53h-5.24l1.18-4H130c1.83-5.63,3.2-9.75,3.2-9.75a6.1,6.1,0,0,1,6,3.47,3.28,3.28,0,0,1-.2,2.68c-.06.13-.58,1.5-1.3,3.6l5.16.06-1.37,3.92Z"/><path d="M162.15,40.63c-.2.85-9,21.12-16.22,22.23a21.37,21.37,0,0,1-2.62.14c-12-1.12-8.56-20.87-8.56-20.87,1.31-11.44,10.27-19.55,14.32-19.49s9.87,2.49,6.74,13.21c-2.16,7.46-9.81,10.47-14.2,11.58.07,5.43,1,8.5,2.75,8.44,7.26-.2,15.17-17.86,15.44-18.51C159.8,37.36,162.54,38.67,162.15,40.63ZM141.61,44.1c7.2-2.62,10.93-14.92,7.66-14.79C145.8,29.45,142,34.94,141.61,44.1Z"/><path d="M183.14,40.56c-.39,2-9.22,15.9-12.68,15.9s-3.67-6.41-3.21-10.86c.39-3.92,2.88-12.16,4.38-17,.46-1.51-.65-3.54-2.81-5.37-1.57,6.08-4.84,14.65-7,18.31l-3.66-1s6.61-12.75,5.76-27.14c0,0,5.62.39,5.88,4.38a12.65,12.65,0,0,1-.06,1.37c3.59.92,11.9,4.19,9.94,9.49-.26.85-6,14.64-5,16.8.85,2,5.76-7.06,6.15-8C180.79,37.36,183.54,38.6,183.14,40.56Z"/><path d="M117,79.34a2.89,2.89,0,0,1-3.66,1.83c-3-.66-3.27-7.33-13.35-4-8.76,2.94-15.82,9.74-20.2,5-2.29-2.42-1.84-5.69.19-8.56-13.73-1.44-19.29,35.44-7.06,38.52C84,114.91,91.26,99,91.65,98.11c0,0,3.27,1.11,2.09,4-.46,1.24-10.59,20.34-22.3,20.34C54,122.5,59,92.29,59,92.29c1.9-16.68,15-28.39,20.8-28.26,4.9.07,13,2.75,11.18,12.3,5.89-3.53,14.32-9.42,18.7-9C116.83,68,118.79,75.94,117,79.34Z"/><path d="M118.66,101.64c-1.11,2-6,9.22-12.82,4.51h-.07a28.84,28.84,0,0,1-3.53,4.58A23.14,23.14,0,0,1,96,115.44l-.65.19a3.64,3.64,0,0,1-4.45-1.3,4.62,4.62,0,0,1-.59-2.55,24,24,0,0,1-.58-6c0-3.21,2.29-14.59,6.54-20.28,0,0,6.93-10.72,16.61-2.42,3.53,3-.46,12.17-4.65,19.23a6.59,6.59,0,0,0,3,.66c1.44,0,3.4-1.57,5.23-5C116.37,98,119.7,99.61,118.66,101.64Zm-20.47,1.7a30.15,30.15,0,0,0,3.66-3.79A25.52,25.52,0,0,1,103,87a5.78,5.78,0,0,0-1.11.65C100.15,90.78,97.6,97.91,98.19,103.34ZM108.13,87c-.13-.2-.2-.33-.33-.39-1-.79-2.68,3.79-2.68,8.24C107.28,91.24,108.59,87.84,108.13,87Z"/><path d="M141.16,101.38c-.2.85-9,21.12-16.22,22.23a20,20,0,0,1-2.62.13c-12-1.11-8.57-20.86-8.57-20.86,1.31-11.44,10.27-19.55,14.33-19.49,3.46.07,9.28,2,7.58,9-.32,1.37-2.22,3.27-3.73,2.94-2-.39-2.48-3.47-2.48-3.47-.07-1.11-.39-2-1.18-1.83-8.43,2.23-9.41,24.92-3.79,24.92,7.26,0,13.67-16,13.93-16.61C138.41,98.37,141.55,99.41,141.16,101.38Z"/><path d="M182.75,131c-1,3.8-3.34,7.85-11.18,7.92s-20.28-9.29-20.87-31.07c0,0-.45-2-2-1.18a62.48,62.48,0,0,0-4.84,17.14c0,4-6.87-.39-6.87-4.78,0-13.53,1.24-21.25,7.39-41,0,0,2.49-7.78.52-10.2,0,0,8.64-.92,8.64,5.29,0,2.62-4.45,14.33-7.33,28.78,2.81-7.52,8.37-17,12-19,4.51-2.42,8,.4,8.89,2.36s-2.15,2.94-2.15,2.94a33.55,33.55,0,0,0-13,12.3c1.89-.33,5.56-.85,6.08.26.78,1.44-1.05,15.56,3.47,20.86s13.14,9.61,21.25,3.14C182.75,124.79,183.86,126.88,182.75,131Z"/><path d="M179.68,81.82c-3.14,9-7.72,23-7.2,24.33.85,2,5.82-7.06,6.22-8,0,0,2.74,1.3,2.35,3.27s-9.22,15.89-12.69,15.89-3.66-6.48-3.2-10.92c.32-3.21,3.86-14.91,6.93-24.53h-5.23l1.18-4h5.29c1.83-5.62,3.21-9.74,3.21-9.74a6.09,6.09,0,0,1,6,3.46,3.29,3.29,0,0,1-.19,2.69c-.07.13-.59,1.5-1.31,3.59l5.17.07-1.38,3.92Z"/><path d="M206.29,101.38c-.39,2-9.22,15.89-12.62,15.89s-3.73-6.41-3.27-10.86c-2.42,4.65-5.1,8.77-7.26,9.22-5.1,1.12-5.56-6-5.56-10.66s4.12-25.11,11.58-25.37c4.58-.2,6.8,3.07,7.78,5.69a4.91,4.91,0,0,1,5.76,2.35,2.24,2.24,0,0,1,0,2.16c-.4.79-5.76,14.39-4.91,16.35s5.76-7.06,6.15-8C203.94,98.11,206.69,99.41,206.29,101.38Zm-14.06-3.21c.85-3.27,1.9-6.73,2.68-9.22-1-2.16-3-6.15-4.12-5-1.43,1.44-5.88,12.23-4.57,19.49C187,107.79,189.94,102.82,192.23,98.17Z"/><path d="M213.36,87.05a2.26,2.26,0,0,1,0,2.16c-.4.79-4.58,15-3.73,16.94s5.82-7.06,6.21-8c0,0,2.75,1.3,2.36,3.27s-9.23,15.89-12.69,15.89-3.66-6.48-3.21-10.92c.59-5.69,4.39-21.32,4.39-21.32S211.07,83.06,213.36,87.05Zm.32-9.94A4.12,4.12,0,1,1,217.8,73,4.1,4.1,0,0,1,213.68,77.11Z"/><path d="M230.1,101.31c-.39,2-9.22,15.89-12.69,15.89-2.68,0-3.4-3.86-3.4-7.65-.07-6.67,2.62-13.86,6.93-31.52,0,0,2-7.13.53-10.2,0,0,8.63-.92,8.63,5.29,0,3.27-4.32,11.19-8,28.26-.26,1.44-.58,4.18-.06,4.84,1.37,1.7,5.36-7.13,5.75-8.11C227.74,98.11,230.49,99.35,230.1,101.31Z"/></g><path class="cls-2" d="M76.68,55c0,3.47-6.86-.33-6.86-4.12,0-10.66,2.94-15.7,5.29-24.4C67.27,35.23,56.8,46.87,56.8,46.87s-4.12,4.32-5.1.78C49.15,38.24,50.92,27.9,54,19.34,38.42,34.57,35.48,56,35.48,56c0,4-6.87-.39-6.87-4.77,0-13.54,1.25-21.26,7.39-41a32.61,32.61,0,0,0,1.18-5.3c-.85-3.14-21,10.92-28.71,9.88-8-1-9.81-9.16-7.59-12.43,0,0,.92-2.48,4.19-1.63S8.34,8.22,19.85,5.47C29.07,3.25,36.53-1.85,41.69.7c2.16,1,4.52,2.29,4.52,5.23.26,3.66-3.08,11.51-6.09,21.78C45.36,17.24,54.19,4.49,59.55,2.14c7.26-3.21,12.55,0,14,2.61a1.75,1.75,0,0,1,.07,1.7v.07C63,21,58.76,31,57.26,37.52,62.75,30.78,75.7,14,76.55,6.65V6.52S86,2.4,86.69,7.83C88.06,27.84,76.68,35,76.68,55Z"/><path class="cls-2" d="M95,24.31a2.18,2.18,0,0,1,0,2.15c-.39.79-4.57,15-3.72,16.94s5.82-7.06,6.21-8c0,0,2.75,1.31,2.35,3.27S90.61,54.52,87.15,54.52s-3.67-6.47-3.21-10.92c.59-5.69,4.38-21.32,4.38-21.32S92.71,20.32,95,24.31Zm.33-9.94a4.12,4.12,0,1,1,4.12-4.12A4.11,4.11,0,0,1,95.32,14.37Z"/><path class="cls-2" d="M112.65,41.77c3.47,4.9-.06,12.1-6.41,13.14C97.15,56.42,96,46.8,95.84,45.76c-1-7,1.77-9.49,2.36-8.5,1.31,2,2.61,11.83,5.36,10.59,5.36-2.42-1.18-8.11-4.31-15.43-3.54-8.11.58-15,9.35-16.62s13.86,4,12.55,10.47-6,9-9.28,8.3c-1.77-.32-2.82-2.15-2.42-4.44.52-3-.2-4.52-1.38-4.71C102.65,24.44,105.33,31.24,112.65,41.77Z"/><path class="cls-2" d="M133.38,19.07c-3.14,9-7.71,23-7.19,24.33.85,2,5.82-7.06,6.21-8,0,0,2.75,1.31,2.36,3.27s-9.23,15.89-12.69,15.89-3.66-6.47-3.21-10.92c.33-3.21,3.86-14.91,6.94-24.53h-5.24l1.18-4H127c1.83-5.63,3.2-9.75,3.2-9.75a6.1,6.1,0,0,1,6,3.47,3.28,3.28,0,0,1-.2,2.68c-.06.13-.58,1.5-1.3,3.6l5.16.06-1.37,3.92Z"/><path class="cls-2" d="M159.15,38.63c-.2.85-9,21.12-16.22,22.23a21.37,21.37,0,0,1-2.62.14c-12-1.12-8.56-20.87-8.56-20.87,1.31-11.44,10.27-19.55,14.32-19.49s9.87,2.49,6.74,13.21c-2.16,7.46-9.81,10.47-14.2,11.58.07,5.43,1,8.5,2.75,8.44,7.26-.2,15.17-17.86,15.44-18.51C156.8,35.36,159.54,36.67,159.15,38.63ZM138.61,42.1c7.2-2.62,10.93-14.92,7.66-14.79C142.8,27.45,139,32.94,138.61,42.1Z"/><path class="cls-2" d="M180.14,38.56c-.39,2-9.22,15.9-12.68,15.9s-3.67-6.41-3.21-10.86c.39-3.92,2.88-12.16,4.38-17,.46-1.51-.65-3.54-2.81-5.37-1.57,6.08-4.84,14.65-7,18.31l-3.66-1s6.61-12.75,5.76-27.14c0,0,5.62.39,5.88,4.38a12.65,12.65,0,0,1-.06,1.37c3.59.92,11.9,4.19,9.94,9.49-.26.85-6,14.64-5,16.8.85,2,5.76-7.06,6.15-8C177.79,35.36,180.54,36.6,180.14,38.56Z"/><path class="cls-2" d="M114,77.34a2.89,2.89,0,0,1-3.66,1.83c-3-.66-3.27-7.33-13.35-4-8.76,2.94-15.82,9.74-20.2,5-2.29-2.42-1.84-5.69.19-8.56-13.73-1.44-19.29,35.44-7.06,38.52C81,112.91,88.26,97,88.65,96.11c0,0,3.27,1.11,2.09,4-.46,1.24-10.59,20.34-22.3,20.34C51,120.5,56,90.29,56,90.29c1.9-16.68,15-28.39,20.8-28.26,4.9.07,13,2.75,11.18,12.3,5.89-3.53,14.32-9.42,18.7-9C113.83,66,115.79,73.94,114,77.34Z"/><path class="cls-2" d="M115.66,99.64c-1.11,2-6,9.22-12.82,4.51h-.07a28.84,28.84,0,0,1-3.53,4.58A23.14,23.14,0,0,1,93,113.44l-.65.19a3.64,3.64,0,0,1-4.45-1.3,4.62,4.62,0,0,1-.59-2.55,24,24,0,0,1-.58-6c0-3.21,2.29-14.59,6.54-20.28,0,0,6.93-10.72,16.61-2.42,3.53,3-.46,12.17-4.65,19.23a6.59,6.59,0,0,0,3,.66c1.44,0,3.4-1.57,5.23-5C113.37,96,116.7,97.61,115.66,99.64Zm-20.47,1.7a30.15,30.15,0,0,0,3.66-3.79A25.52,25.52,0,0,1,100,85a5.78,5.78,0,0,0-1.11.65C97.15,88.78,94.6,95.91,95.19,101.34ZM105.13,85c-.13-.2-.2-.33-.33-.39-1-.79-2.68,3.79-2.68,8.24C104.28,89.24,105.59,85.84,105.13,85Z"/><path class="cls-2" d="M138.16,99.38c-.2.85-9,21.12-16.22,22.23a20,20,0,0,1-2.62.13c-12-1.11-8.57-20.86-8.57-20.86,1.31-11.44,10.27-19.55,14.33-19.49,3.46.07,9.28,2,7.58,9-.32,1.37-2.22,3.27-3.73,2.94-2-.39-2.48-3.47-2.48-3.47-.07-1.11-.39-2-1.18-1.83-8.43,2.23-9.41,24.92-3.79,24.92,7.26,0,13.67-16,13.93-16.61C135.41,96.37,138.55,97.41,138.16,99.38Z"/><path class="cls-2" d="M179.75,129c-1,3.8-3.34,7.85-11.18,7.92s-20.28-9.29-20.87-31.07c0,0-.45-2-2-1.18a62.48,62.48,0,0,0-4.84,17.14c0,4-6.87-.39-6.87-4.78,0-13.53,1.24-21.25,7.39-41,0,0,2.49-7.78.52-10.2,0,0,8.64-.92,8.64,5.29,0,2.62-4.45,14.33-7.33,28.78,2.81-7.52,8.37-17,12-19,4.51-2.42,8,.4,8.89,2.36s-2.15,2.94-2.15,2.94a33.55,33.55,0,0,0-13,12.3c1.89-.33,5.56-.85,6.08.26.78,1.44-1.05,15.56,3.47,20.86s13.14,9.61,21.25,3.14C179.75,122.79,180.86,124.88,179.75,129Z"/><path class="cls-2" d="M176.68,79.82c-3.14,9-7.72,23-7.2,24.33.85,2,5.82-7.06,6.22-8,0,0,2.74,1.3,2.35,3.27s-9.22,15.89-12.69,15.89-3.66-6.48-3.2-10.92c.32-3.21,3.86-14.91,6.93-24.53h-5.23l1.18-4h5.29c1.83-5.62,3.21-9.74,3.21-9.74a6.09,6.09,0,0,1,6,3.46,3.29,3.29,0,0,1-.19,2.69c-.07.13-.59,1.5-1.31,3.59l5.17.07-1.38,3.92Z"/><path class="cls-2" d="M203.29,99.38c-.39,2-9.22,15.89-12.62,15.89s-3.73-6.41-3.27-10.86c-2.42,4.65-5.1,8.77-7.26,9.22-5.1,1.12-5.56-6-5.56-10.66s4.12-25.11,11.58-25.37c4.58-.2,6.8,3.07,7.78,5.69a4.91,4.91,0,0,1,5.76,2.35,2.24,2.24,0,0,1,0,2.16c-.4.79-5.76,14.39-4.91,16.35s5.76-7.06,6.15-8C200.94,96.11,203.69,97.41,203.29,99.38Zm-14.06-3.21c.85-3.27,1.9-6.73,2.68-9.22-1-2.16-3-6.15-4.12-5-1.43,1.44-5.88,12.23-4.57,19.49C184,105.79,186.94,100.82,189.23,96.17Z"/><path class="cls-2" d="M210.36,85.05a2.26,2.26,0,0,1,0,2.16c-.4.79-4.58,15-3.73,16.94s5.82-7.06,6.21-8c0,0,2.75,1.3,2.36,3.27s-9.23,15.89-12.69,15.89-3.66-6.48-3.21-10.92c.59-5.69,4.39-21.32,4.39-21.32S208.07,81.06,210.36,85.05Zm.32-9.94A4.12,4.12,0,1,1,214.8,71,4.1,4.1,0,0,1,210.68,75.11Z"/><path class="cls-2" d="M227.1,99.31c-.39,2-9.22,15.89-12.69,15.89-2.68,0-3.4-3.86-3.4-7.65-.07-6.67,2.62-13.86,6.93-31.52,0,0,2-7.13.53-10.2,0,0,8.63-.92,8.63,5.29,0,3.27-4.32,11.19-8,28.26-.26,1.44-.58,4.18-.06,4.84,1.37,1.7,5.36-7.13,5.75-8.11C224.74,96.11,227.49,97.35,227.1,99.31Z"/></g></g></svg>