<?xml version="1.0" encoding="utf-8"?>
<!-- Generator: Adobe Illustrator 24.0.1, SVG Export Plug-In . SVG Version: 6.00 Build 0)  -->
<svg version="1.1" id="Layer_1" xmlns="http://www.w3.org/2000/svg" xmlns:xlink="http://www.w3.org/1999/xlink" x="0px" y="0px"
	 viewBox="0 0 231 140" style="enable-background:new 0 0 231 140;" xml:space="preserve">
<style type="text/css">
	.st0{fill:none;}
	.st1{fill:#E8E8E8;}
	.st2{fill:#B90045;}
</style>
<g>
	<g>
		<path class="st0" d="M76,9.9c-5.3,7.4-9,13.6-11.4,18.7C69.2,22.4,74.1,15.1,76,9.9z"/>
		<path class="st1" d="M57.1,47.1c0,0-1.1,1.2-2.3,1.8c0.1,0.3,0.2,0.7,0.2,1c1,3.5,5.1-0.8,5.1-0.8s6.3-7,12.8-14.2
			c0.8-2.5,1.7-5.1,2.5-8.2C67.5,35.4,57.1,47.1,57.1,47.1z"/>
		<path class="st1" d="M90,10c-0.2-1.9-1.6-2.6-3.2-2.8C86.9,7.5,86.9,7.7,87,8c1.4,20-10,27.2-10,47.2c0,1.3-1,1.6-2.3,1.2
			c2,2.2,5.3,3.2,5.3,0.8C80,37.2,91.3,30,90,10z"/>
		<path class="st1" d="M35.8,56.1c0,1.4-0.8,1.8-1.9,1.5c2,2.2,4.9,3.1,4.9,0.5c0,0,2.2-16.3,13.2-30.6c0.6-2.8,1.4-5.5,2.3-8
			C38.7,34.8,35.8,56.1,35.8,56.1z"/>
		<path class="st1" d="M8.8,14.9c-1-0.1-2-0.4-2.8-0.7c1.4,1.4,3.3,2.4,5.8,2.7c5.9,0.8,19.1-7.2,25.3-9.7c0.1-0.7,0.3-1.5,0.4-2.2
			C36.6,1.9,16.5,16,8.8,14.9z"/>
		<path class="st1" d="M73.9,6.6C73.9,6.7,73.9,6.7,73.9,6.6C63.2,21.2,59,31.2,57.5,37.7c1.8-2.2,4.4-5.4,7-9.1
			C67,23.5,70.7,17.3,76,9.9c0.4-1.1,0.7-2.1,0.8-3c-0.6-1.1-2-2.4-3.9-3.1c0.4,0.4,0.7,0.8,0.9,1.2C74.2,5.6,74.2,6.2,73.9,6.6z"/>
		<path class="st1" d="M11.7,5.7c-1.2-1.2-2-2.5-3.3-2.9C8.1,2.8,8,2.8,7.8,2.8C8.7,3.8,9.8,5,11.7,5.7z"/>
		<path class="st1" d="M40.4,27.9c2.2-4.3,5-9.1,7.9-13.3c0.8-2.8,1.3-5,1.2-6.5c0-2.8-2.2-4.1-4.2-5.1c0.7,0.8,1.2,1.8,1.2,3.1
			C46.7,9.8,43.4,17.6,40.4,27.9z"/>
		<path class="st2" d="M77,55.2C77,35.2,88.3,28,87,8c0-0.3-0.1-0.5-0.2-0.8c-1.5-4.2-9.9-0.5-9.9-0.5s0,0,0,0.1c0,0,0,0,0,0.1
			c0,0,0,0.1,0,0.1c-0.1,0.9-0.4,1.9-0.8,3c-1.9,5.2-6.9,12.5-11.4,18.7c-2.7,3.6-5.3,6.9-7,9.1c1.5-6.5,5.7-16.5,16.3-31
			c0,0,0,0,0-0.1c0.3-0.5,0.3-1-0.1-1.7c-0.2-0.4-0.5-0.8-0.9-1.2C70.8,1.5,66-0.4,59.8,2.3c-3.1,1.4-7.5,6.3-11.6,12.3
			c-2.9,4.2-5.7,9-7.9,13.3c3-10.3,6.3-18.1,6.1-21.8c0-1.3-0.5-2.3-1.2-3.1c-0.9-0.9-2.1-1.6-3.3-2.1c-5.2-2.6-12.6,2.6-21.8,4.8
			c-4,1-6.6,0.8-8.5,0.1c-1.9-0.7-3-1.9-3.9-3C7,1.9,6.3,1.1,5.4,0.9C2.1,0,1.2,2.5,1.2,2.5c-1.9,2.8-0.8,9.3,4.8,11.7
			c0.8,0.4,1.8,0.6,2.8,0.7c7.7,1,27.9-13,28.7-9.9c-0.1,0.8-0.2,1.5-0.4,2.2c-0.4,1.7-0.8,3.1-0.8,3.1c-6.1,19.8-7.4,27.5-7.4,41
			c0,2.9,2.9,5.7,5,6.3c1.1,0.3,1.9-0.1,1.9-1.5c0,0,2.9-21.4,18.5-36.6c-0.9,2.5-1.7,5.2-2.3,8c-1.4,6.6-1.8,13.7,0,20.3
			c0.5,1.7,1.7,1.6,2.8,1c1.2-0.6,2.3-1.8,2.3-1.8s10.5-11.6,18.3-20.4c-0.8,3-1.7,5.6-2.5,8.2c-1.5,4.7-2.8,9.3-2.8,16.2
			c0,2.3,2.6,4.6,4.6,5.3C75.9,56.8,77,56.5,77,55.2z"/>
	</g>
	<g>
		<path class="st1" d="M99.2,8.4c0.4,0.6,0.6,1.3,0.6,2.1c0,2.3-1.8,4.1-4.1,4.1c-0.2,0-0.4,0-0.6-0.1c0.7,1.2,2,2.1,3.6,2.1
			c2.3,0,4.1-1.8,4.1-4.1C102.7,10.3,101.2,8.6,99.2,8.4z"/>
		<path class="st2" d="M99.7,10.4c0-0.8-0.2-1.5-0.6-2.1c-0.7-1.2-2-2.1-3.6-2.1c-2.3,0-4.1,1.8-4.1,4.1c0,2.1,1.5,3.8,3.6,4.1
			c0.2,0,0.4,0.1,0.6,0.1C97.9,14.6,99.7,12.7,99.7,10.4z"/>
	</g>
	<g>
		<path class="st0" d="M95.1,40.2c1.3-2,2.5-4.2,2.7-4.7c0,0,2.7,1.3,2.4,3.3c0,0,0,0,0,0c0.3-0.6,0.6-1.1,0.6-1.3
			c0,0,2.7,1.3,2.4,3.3c-0.1,0.3-0.3,0.8-0.6,1.4c0.5,1.8,1.1,4,1.8,5.6c4.5-2.5-1.7-8.1-4.8-15.2c-0.6-1.4-1-2.8-1.2-4.2
			c0,0.1-0.1,0.1-0.1,0.2C98,29.2,96.1,35.4,95.1,40.2z"/>
		<path class="st1" d="M95.3,26.7c-0.4,0.8-4.6,15-3.7,16.9c0.5,1,2.1-1,3.6-3.4c1-4.8,2.9-11.1,3.2-11.6c0-0.1,0.1-0.1,0.1-0.2
			c-0.1-0.7-0.1-1.3-0.1-1.9c0,0,0,0,0,0c-0.9-1.6-2.1-2.2-3.3-2.4c0.1,0.1,0.2,0.3,0.3,0.4C95.5,25,95.7,25.7,95.3,26.7z"/>
		<path class="st1" d="M103.1,40.8c0.4-2-2.4-3.3-2.4-3.3c-0.1,0.2-0.3,0.7-0.6,1.3c-0.1,0.3-0.3,0.8-0.6,1.4c1,3.6,2.3,8.7,4.3,7.8
			c0.2-0.1,0.3-0.2,0.5-0.2c-0.7-1.6-1.3-3.8-1.8-5.6C102.8,41.6,103.1,41.1,103.1,40.8z"/>
		<path class="st1" d="M96.1,45.8c-2.7,4-6.1,8.2-8.2,8.8c0.5,1.3,1.3,2.1,2.5,2.1c1.6,0,4.4-3,6.9-6.4c-0.9-2-1.2-3.9-1.2-4.4
			C96.1,45.9,96.1,45.9,96.1,45.8z"/>
		<path class="st1" d="M108.4,25.6c-5.4-1-2.7,5.8,4.6,16.4c3.5,4.9-0.1,12.1-6.4,13.1c-1.8,0.3-3.3,0.2-4.6-0.3
			c1.5,1.7,3.9,2.9,7.6,2.3c6.3-1,9.9-8.2,6.4-13.1c-6.5-9.3-9.3-15.7-6.1-16.4C109.7,26.4,109.1,25.7,108.4,25.6z"/>
		<path class="st2" d="M121.4,26.5c0.6-3.1-0.2-5.9-2.2-7.9c-2.2-2.2-5.8-3.4-10.4-2.5c-6.5,1.2-10.4,5.2-10.6,10.5
			c0,0.6,0,1.3,0.1,1.9c0.2,1.3,0.5,2.7,1.2,4.2c3,7.1,9.3,12.7,4.8,15.2c-0.1,0.1-0.3,0.2-0.5,0.2c-2,0.9-3.3-4.3-4.3-7.8
			c0.3-0.6,0.5-1.1,0.6-1.4c0,0,0,0,0,0c0.4-2-2.4-3.3-2.4-3.3c-0.2,0.5-1.4,2.7-2.7,4.7c-1.5,2.3-3.1,4.4-3.6,3.4
			c-0.9-2,3.3-16.2,3.7-16.9c0.5-1,0.3-1.7,0-2.2c-0.1-0.2-0.2-0.3-0.3-0.4c-2.3-3.4-6.4-1.6-6.4-1.6s-3.8,15.6-4.4,21.3
			c-0.5,4.4-0.2,10.9,3.2,10.9c0.1,0,0.3,0,0.5-0.1c2.1-0.6,5.5-4.8,8.2-8.8c0,0,0,0.1,0,0.1c0.1,0.4,0.3,2.4,1.2,4.4
			c0.8,1.8,2.3,3.7,4.6,4.5c1.2,0.4,2.7,0.6,4.6,0.3c6.3-1,9.9-8.2,6.4-13.1c-7.3-10.5-10-17.3-4.6-16.4c0.7,0.1,1.3,0.8,1.5,2
			c0.1,0.7,0.1,1.6-0.1,2.7c-0.4,2.3,0.7,4.1,2.4,4.4c0.3,0.1,0.5,0.1,0.8,0.1C116.2,35,120.2,32.5,121.4,26.5z"/>
	</g>
	<g>
		<path class="st0" d="M142.3,40.1c3.1-2.8,5.1-7.3,5.4-10C145.4,31.4,143.3,34.9,142.3,40.1z"/>
		<path class="st1" d="M136.3,11.7c-0.1,0.1-0.6,1.5-1.3,3.6l3.7,0c0.3-1,0.6-1.6,0.6-1.6c0.5-1,0.5-2.2,0.2-2.7
			c-1.1-2-2.6-2.9-3.9-3.3c0.3,0.4,0.6,0.8,0.9,1.3C136.8,9.5,136.9,10.6,136.3,11.7z"/>
		<path class="st1" d="M166.1,21.4c-1.6,6.1-4.8,14.6-7,18.3l0,0c-1.7,4.1-9.4,20.3-15.9,21.3c0,0-1.8,0.2-2.6,0.1
			c-0.9-0.1-1.7-0.3-2.4-0.6c1.3,1.4,3.1,2.3,5.4,2.6c0.8,0.1,2.6-0.1,2.6-0.1c6.4-1,14.1-17.2,15.9-21.3l0,0c2-3.4,5-11,6.6-17
			C168.3,23.7,167.4,22.5,166.1,21.4z"/>
		<path class="st1" d="M131.6,44.9c-2.8,4.2-6.6,9-8.8,9.7c0.5,1.3,1.3,2.1,2.5,2.1c1.5,0,4.1-2.7,6.5-5.9
			C131.6,48.7,131.5,46.7,131.6,44.9z"/>
		<path class="st1" d="M133.7,19.3c-3.1,9-7.7,23-7.2,24.3c0.6,1.3,2.9-2.1,4.5-4.9c1.5-5.1,3.8-12.1,5.7-17.4h5.2l1.4-3.9l-3.7,0
			l-0.7,2H133.7z"/>
		<path class="st1" d="M124.4,19.3l-0.6,2h1.6c0.2-0.7,0.4-1.3,0.6-2H124.4z"/>
		<path class="st1" d="M142.3,40.1c0.9-5.2,3.1-8.7,5.4-10c0.2-1.6-0.2-2.6-1.2-2.6c-3.5,0.1-7.3,5.6-7.7,14.8
			C140.2,41.8,141.3,41.1,142.3,40.1z"/>
		<path class="st1" d="M181.1,37.5c-0.1,0.2-0.3,0.7-0.7,1.4c-0.7,2.4-8.6,14.6-12.2,15.6c0.5,1.3,1.3,2.1,2.5,2.1
			c3.5,0,12.3-13.9,12.7-15.9S181.1,37.5,181.1,37.5z"/>
		<path class="st1" d="M167,17.3c0.8,0.2,1.9,0.5,3.1,1c0-0.1,0-0.3,0-0.4c-0.1-2.3-2.1-3.4-3.7-3.9c0.4,0.5,0.6,1.2,0.7,1.9
			C167.1,16.3,167.1,16.7,167,17.3z"/>
		<path class="st1" d="M153.1,34c-2.2,7.5-9.8,10.5-14.2,11.6c0.1,5.4,1,8.5,2.7,8.4c0.3,0,0.7-0.1,1-0.1c-0.5-1.4-0.7-3.6-0.7-6.3
			c4.4-1.1,12-4.1,14.2-11.6c2.4-8.2-0.5-11.6-3.8-12.7C154,25.3,154.7,28.6,153.1,34z"/>
		<path class="st1" d="M177,26.8c-0.3,0.9-6,14.6-5,16.8c0.5,1.2,2.7-1.9,4.3-4.7c1.5-4.5,3.6-9.6,3.7-10.1c1.2-3.3-1.6-5.9-4.8-7.5
			C176.8,22.7,177.8,24.6,177,26.8z"/>
		<g>
			<path class="st0" d="M147.7,30.1c0.2-1.6-0.2-2.6-1.2-2.6c-3.5,0.1-7.3,5.6-7.7,14.8c1.3-0.5,2.4-1.2,3.5-2.2
				C145.4,37.3,147.4,32.9,147.7,30.1z"/>
			<path class="st1" d="M119.3,18.5c2,2,2.8,4.9,2.2,7.9c-1.2,6-5.3,8.6-8.5,8.4c0.4,1,1.2,1.7,2.2,1.9c1.9,0.4,4.3-0.3,6.3-2.2
				c0.9-3.1,1.9-6.6,3-10C123.8,21.9,122,19.7,119.3,18.5z"/>
			<path class="st2" d="M178.1,35.5c-0.1,0.4-0.9,1.8-1.8,3.4c-1.6,2.7-3.8,5.9-4.3,4.7c-0.9-2.2,4.8-16,5-16.8
				c0.8-2.2-0.1-4.1-1.8-5.5c-1.4-1.3-3.3-2.2-5.1-2.9c-1.1-0.5-2.2-0.8-3.1-1c0.1-0.6,0.1-1,0.1-1.4c-0.1-0.8-0.3-1.4-0.7-1.9
				c-1.5-2.2-5.2-2.5-5.2-2.5c0.9,14.4-5.8,27.1-5.8,27.1l0.1,0c-2.5,4.9-7.8,14-12.9,15.2c-0.3,0.1-0.7,0.1-1,0.1
				c-1.8,0.1-2.7-3-2.7-8.4c4.4-1.1,12-4.1,14.2-11.6c1.6-5.5,0.9-8.8-0.8-10.7c-1.6-1.9-4-2.5-6-2.5c-3.5-0.1-10.6,5.9-13.3,14.9
				c-0.2-0.1-0.3-0.2-0.3-0.2c-0.1,0.3-0.8,1.6-1.7,3.1c-1.6,2.8-4,6.2-4.5,4.9c-0.5-1.3,4.1-15.3,7.2-24.3h5.2l0.7-2l0.7-2l-1.5,0
				l-3.7,0c0.7-2.1,1.2-3.5,1.3-3.6c0.5-1,0.5-2.2,0.2-2.7c-0.3-0.5-0.6-0.9-0.9-1.3c-2.2-2.7-5.2-2.2-5.2-2.2s-1.4,4.1-3.2,9.7H122
				l-1.2,4h3.6h1.6c-0.2,0.7-0.4,1.3-0.6,2c-0.3,1.1-0.7,2.2-1,3.2c-1.1,3.5-2.1,7-3,10c-1.2,4.2-2.1,7.7-2.3,9.2
				c-0.5,4.4-0.2,10.9,3.2,10.9c0.1,0,0.3,0,0.5-0.1c2.2-0.6,6-5.5,8.8-9.7c-0.1,1.7,0,3.8,0.3,5.8c0.6,4.2,2.3,8.3,6.3,9.8
				c0.7,0.3,1.5,0.5,2.4,0.6c0.8,0.1,2.6-0.1,2.6-0.1c6.4-1,14.1-17.2,15.9-21.3l0,0c2.2-3.7,5.4-12.2,7-18.3
				c1.3,1.1,2.2,2.3,2.6,3.4c0.3,0.7,0.4,1.4,0.2,2c-1.5,4.8-4,13.1-4.4,17c-0.5,4.4-0.2,10.9,3.2,10.9c0.1,0,0.3,0,0.5-0.1
				c3.6-1,11.5-13.3,12.2-15.6c0-0.1,0-0.1,0-0.2C180.8,36.8,178.1,35.5,178.1,35.5z M146.5,27.5c1,0,1.3,1,1.2,2.6
				c-0.3,2.8-2.3,7.2-5.4,10c-1,0.9-2.2,1.7-3.5,2.2C139.3,33.1,143.1,27.6,146.5,27.5z"/>
		</g>
	</g>
	<g>
		<path class="st0" d="M103.3,87.2c-0.1,0.2-0.1,0.4-0.2,0.5C103.2,87.5,103.2,87.4,103.3,87.2C103.3,87.2,103.3,87.2,103.3,87.2z"
			/>
		<path class="st0" d="M99.1,97.7c-0.1-0.3-0.1-0.7-0.1-1c-0.1,0.5-0.2,1-0.3,1.5C98.8,98.1,99,97.9,99.1,97.7z"/>
		<path class="st1" d="M105.4,85.2c-0.1-0.2-0.2-0.3-0.3-0.4c-0.5-0.4-1.2,0.7-1.8,2.4c0,0,0,0,0,0c-0.1,0.2-0.1,0.4-0.2,0.6
			c-0.4,1.5-0.7,3.4-0.7,5.3C104.6,89.4,105.9,86,105.4,85.2z"/>
		<path class="st1" d="M87.1,107c-4.1,5.9-10.9,13.7-18.4,13.7c-1.8,0-3.4-0.4-4.8-1c1.9,1.8,4.4,3,7.8,3c6.2,0,12-5.4,16.2-10.7
			c-0.2-0.5-0.3-1.2-0.3-2C87.3,109,87.2,108,87.1,107z"/>
		<path class="st1" d="M122.2,121.8c0,0-1.8,0.2-2.6,0.1c-0.9-0.1-1.7-0.3-2.4-0.6c1.3,1.4,3.1,2.3,5.4,2.6c0.8,0.1,2.6-0.1,2.6-0.1
			c3-0.5,6.2-4.2,9-8.5c0-2.7,0.1-5.2,0.3-7.6C131.3,113.8,126.5,121.1,122.2,121.8z"/>
		<path class="st1" d="M105.5,100.5c0.8,0.4,1.8,0.7,2.9,0.7c0.3,0,0.6-0.1,1-0.2c3.8-6.8,7-14.9,3.7-17.6c-1.1-0.9-2.1-1.6-3.1-2.1
			c0,0,0.1,0.1,0.1,0.1C113.7,84.2,109.7,93.4,105.5,100.5z"/>
		<path class="st1" d="M146,104.9c-4,8.9-4.8,17.1-4.8,17.1c0,1.4-0.8,1.8-1.9,1.5c2,2.2,4.9,3.1,4.9,0.5c0,0,0.7-7.1,4-15.2
			c-0.1-0.9-0.1-1.8-0.2-2.8C148,106,147.5,104.1,146,104.9z"/>
		<path class="st1" d="M88.2,74.5c1-0.6,2.1-1.3,3.2-2c-0.5-3.7-2.8-5.9-5.5-7.1C87.9,67.4,89,70.3,88.2,74.5z"/>
		<path class="st1" d="M132.9,90.6c-0.3,1.1-1.5,2.5-2.8,2.9c0.4,0.9,1,1.9,2.1,2.1c1.5,0.3,3.4-1.6,3.7-2.9
			c1.2-4.9-1.3-7.3-4.1-8.4C133,85.6,133.7,87.7,132.9,90.6z"/>
		<path class="st1" d="M125.6,88.3c-8.4,2.2-9.4,24.9-3.8,24.9c0.2,0,0.4,0,0.6,0C120,108,121.4,94.6,127,91
			c-0.2-0.5-0.2-0.9-0.2-0.9C126.7,89,126.3,88.1,125.6,88.3z"/>
		<path class="st1" d="M114.2,77.5c0,0-0.6,2.1-3.1,1.9c0.8,0.9,1.5,1.7,2.4,1.9c2.9,0.7,3.7-1.8,3.7-1.8c1.6-3,0.3-9.5-4.9-11.5
			C115,70.8,115.5,75.2,114.2,77.5z"/>
		<path class="st1" d="M110.6,105.2c-2.1,1-4.6,1.1-7.5-0.9c-0.1,0-0.1,0-0.1,0c-1.4,2.2-2.7,3.9-3.5,4.6c-1.7,1.7-4.1,3.7-6.3,4.7
			c-0.2,0.1-0.5,0.1-0.7,0.2c-0.6,0.2-1.1,0.3-1.7,0.2c0.1,0.2,0.1,0.3,0.2,0.4c1.2,1.6,2.7,1.8,4.4,1.3c0.2-0.1,0.5-0.1,0.7-0.2
			c2.2-1,4.6-3,6.3-4.7c0.8-0.7,2.1-2.4,3.5-4.6c0,0,0,0,0.1,0c1.6,1.1,3.1,1.5,4.5,1.6C110.6,106.9,110.6,106,110.6,105.2z"/>
		<path class="st1" d="M143.5,100.1c1.6-4.3,4.1-9.3,6.7-13.1c2-7,3.6-12.1,3.6-13.7c0-2.9-1.8-4.2-3.8-4.8c0.5,0.7,0.8,1.6,0.8,2.8
			C150.8,73.9,146.4,85.6,143.5,100.1z"/>
		<path class="st1" d="M97.2,75.4C90,77.8,84,82.8,79.6,81.9c0.1,0.2,0.3,0.3,0.4,0.5c4.4,4.7,11.4-2.1,20.2-5
			c3.4-1.1,5.7-1.1,7.4-0.6C105.9,75,103.4,73.3,97.2,75.4z"/>
		<path class="st1" d="M183,125c-0.8,0.7-1.7,1.2-2.6,1.7c-0.1,0.7-0.2,1.6-0.4,2.5c-1,3.8-3.3,7.8-11.2,7.9c-2,0-4.3-0.6-6.6-1.8
			c3.3,2.6,6.7,3.9,9.6,3.8c7.8-0.1,10.2-4.1,11.2-7.9C184.1,127.1,183,125,183,125z"/>
		<path class="st1" d="M162.2,86.4c-5.7,2.9-9.9,7.5-12.9,12.3c1.2-0.2,3.3-0.5,4.6-0.4c2.9-3.9,6.6-7.5,11.3-9.9c0,0,3.1-1,2.2-2.9
			c-0.5-1.1-1.8-2.5-3.6-3c0.3,0.3,0.5,0.7,0.6,1C165.3,85.4,162.2,86.4,162.2,86.4z"/>
		<path class="st1" d="M164.4,124.4c-1-0.8-1.9-1.7-2.6-2.6c-4.5-5.3-2.7-19.4-3.5-20.9c-0.3-0.6-1.5-0.7-2.8-0.7
			c0.2,4-0.6,15,3.3,19.5C160.3,121.6,162.2,123.2,164.4,124.4z"/>
		<path class="st1" d="M99,96.7c-0.5-3.8,0.1-8.1,1.3-11.6c-0.4,0.2-0.8,0.4-1.1,0.7c-1.8,3.1-4.3,10.3-3.7,15.7
			c1.1-0.9,2.2-2,3.2-3.3C98.8,97.7,98.9,97.2,99,96.7z"/>
		<path class="st1" d="M69.8,110.2c-6.6-7.4-3.1-30.4,6-35.4c0.3-1,0.8-2,1.5-3C63.6,70.4,58.1,106.5,69.8,110.2z"/>
		<path class="st2" d="M180,129.2c0.3-1,0.4-1.8,0.4-2.5c0.2-2.4-0.4-3.7-0.4-3.7c-5.4,4.3-11.1,3.8-15.6,1.4
			c-2.2-1.2-4.1-2.8-5.6-4.6c-3.9-4.5-3.1-15.6-3.3-19.5c0-0.7-0.1-1.1-0.2-1.3c-0.2-0.4-0.7-0.6-1.4-0.6c-1.4-0.1-3.4,0.2-4.6,0.4
			c3.1-4.8,7.3-9.4,12.9-12.3c0,0,3.1-1,2.2-2.9c-0.1-0.3-0.4-0.7-0.6-1c-1.4-1.7-4.5-3.3-8.2-1.3c-1.5,0.8-3.4,3-5.3,5.9
			c-2.5,3.8-5.1,8.8-6.7,13.1c2.9-14.5,7.3-26.2,7.3-28.8c0-1.2-0.3-2.1-0.8-2.8c-2.2-3.1-7.8-2.5-7.8-2.5c2,2.4-0.5,10.2-0.5,10.2
			c-2.7,8.6-4.4,15-5.6,20.5c-0.2-0.1-0.4-0.2-0.4-0.2c-0.3,0.6-6.3,15.8-13.4,16.6c-0.2,0-0.4,0-0.6,0c-5.6,0-4.6-22.7,3.8-24.9
			c0.8-0.2,1.1,0.7,1.2,1.8c0,0,0.1,0.4,0.2,0.9c0.3,0.9,0.9,2.3,2.3,2.6c0.3,0.1,0.6,0,0.9-0.1c1.3-0.4,2.5-1.8,2.8-2.9
			c0.7-2.9,0.1-5-1.1-6.4c-1.7-1.9-4.5-2.6-6.5-2.7c-3.9-0.1-12.2,7.3-14.1,17.9c-0.7,0.7-1.3,1.1-1.9,1.4c-0.3,0.1-0.7,0.2-1,0.2
			c-1.2,0-2.2-0.3-2.9-0.7c4.2-7.1,8.2-16.3,4.6-19.2c0,0-0.1-0.1-0.1-0.1c-9.6-8.1-16.5,2.5-16.5,2.5c-2.9,3.9-4.9,10.3-5.8,15.1
			c-2.6,4.6-8.9,13.8-17.5,11.6c-0.1,0-0.2-0.1-0.4-0.1c-11.7-3.7-6.2-39.8,7.4-38.4c-0.7,1-1.2,2-1.5,3c-0.6,2-0.3,4,1.3,5.6
			c0.8,0.8,1.6,1.3,2.6,1.5c4.4,0.9,10.4-4.1,17.6-6.5c6.2-2,8.7-0.3,10.4,1.4c1.1,1.1,1.8,2.3,3,2.6c0.2,0,0.4,0.1,0.6,0.1
			c2.4,0.2,3.1-1.9,3.1-1.9c1.2-2.3,0.7-6.7-1.9-9.5c-1.3-1.3-3.1-2.3-5.4-2.5c-3.6-0.3-10.1,3.7-15.5,7.1c-1.1,0.7-2.2,1.4-3.2,2
			c0.8-4.2-0.3-7.1-2.3-9c-2.4-2.4-6.2-3.2-8.9-3.3c-5.8-0.1-18.9,11.6-20.8,28.3c0,0-4,24.2,7.7,29.3c1.4,0.6,3,1,4.8,1
			c7.5,0,14.3-7.7,18.4-13.7c0.1,1,0.2,2,0.5,3c0,0.8,0.1,1.5,0.3,2c0.1,0.2,0.2,0.4,0.3,0.5c0.8,1.1,1.7,1.5,2.8,1.6
			c0.5,0,1.1-0.1,1.7-0.2c0.2-0.1,0.5-0.1,0.7-0.2c2.2-1,4.6-3,6.3-4.7c0.8-0.7,2.1-2.4,3.5-4.6c0,0,0,0,0.1,0
			c2.9,2,5.5,1.8,7.5,0.9c0,0.8-0.1,1.7,0,2.7c0.1,5.1,1.4,11.5,6.6,13.5c0.7,0.3,1.5,0.5,2.4,0.6c0.8,0.1,2.6-0.1,2.6-0.1
			c4.2-0.7,9.1-8,12.3-14.1c-0.2,2.4-0.3,4.9-0.3,7.6c0,0.6,0,1.3,0,1.9c0,2.9,2.9,5.7,5,6.3c1.1,0.3,1.9-0.1,1.9-1.5
			c0,0,0.9-8.2,4.8-17.1c1.6-0.8,2,1.2,2,1.2c0,0.9,0.1,1.9,0.2,2.8c1.1,14.5,7.7,23.1,14.1,26.5c2.3,1.2,4.6,1.8,6.6,1.8
			C176.7,137,179,133,180,129.2z M95.5,101.5c-0.6-5.4,2-12.6,3.7-15.7c0.3-0.3,0.7-0.5,1.1-0.7c-1.2,3.4-1.8,7.7-1.3,11.6
			c0,0.3,0.1,0.7,0.1,1c-0.1,0.2-0.3,0.3-0.4,0.5C97.7,99.5,96.6,100.6,95.5,101.5z M102.4,93c0-1.9,0.3-3.8,0.7-5.3
			c0.1-0.2,0.1-0.4,0.2-0.5c0.6-1.7,1.3-2.8,1.8-2.4c0.1,0.1,0.2,0.2,0.3,0.4C105.9,86,104.6,89.4,102.4,93z"/>
	</g>
	<g>
		<path class="st1" d="M214.5,69.1c0.4,0.6,0.6,1.3,0.6,2.1c0,2.3-1.8,4.1-4.1,4.1c-0.2,0-0.4,0-0.6-0.1c0.7,1.2,2,2.1,3.6,2.1
			c2.3,0,4.1-1.8,4.1-4.1C218.1,71.1,216.5,69.4,214.5,69.1z"/>
		<path class="st2" d="M215.1,71.2c0-0.8-0.2-1.5-0.6-2.1c-0.7-1.2-2-2.1-3.6-2.1c-2.3,0-4.1,1.8-4.1,4.1c0,2.1,1.5,3.8,3.6,4.1
			c0.2,0,0.4,0.1,0.6,0.1C213.3,75.3,215.1,73.5,215.1,71.2z"/>
	</g>
	<g>
		<path class="st0" d="M174.3,99.4c0.6-1,1.1-2,1.4-2.6c1-4.8,2.7-10.8,5.2-14.8h-1C178.1,87.3,175.8,94.3,174.3,99.4z"/>
		<path class="st0" d="M200.9,97c0.2-1.2,0.5-2.5,0.8-3.7c-0.7,1.8-1.5,4.1-2.2,6.3C200,98.6,200.5,97.6,200.9,97z"/>
		<path class="st0" d="M187.6,105.3c0-0.2,0-0.4,0.1-0.7c-0.1,0.2-0.2,0.4-0.3,0.6C187.4,105.3,187.5,105.3,187.6,105.3z"/>
		<path class="st0" d="M192.2,87.1c-0.4-0.8-0.8-1.8-1.4-2.7c-1.5,2.1-4.9,10.8-4.5,17.5c1-1.3,2.2-3.5,3.2-5.5
			C190.4,93.1,191.4,89.6,192.2,87.1z"/>
		<path class="st1" d="M187.6,105.3c-0.1,0-0.2,0-0.3,0c-2.3,4.4-4.9,8.2-6.9,8.6c-0.4,0.1-0.8,0.1-1.1,0.1c0.8,1.5,2.1,2.3,4.1,1.9
			c1.3-0.3,2.9-2,4.4-4.3C187.5,109.6,187.5,107.3,187.6,105.3z"/>
		<path class="st1" d="M167.7,80l-0.6,2h1.6c0.2-0.7,0.4-1.3,0.6-2H167.7z"/>
		<path class="st1" d="M177,80c-3.1,9-7.7,23-7.2,24.3c0.6,1.3,2.9-2.1,4.5-4.9c1.5-5.1,3.8-12.1,5.7-17.4h1
			c1.2-1.9,2.6-3.4,4.1-3.9l-2.3,0l-0.7,2H177z"/>
		<path class="st1" d="M179.6,72.4c-0.1,0.1-0.6,1.5-1.3,3.6l3.7,0c0.3-1,0.6-1.6,0.6-1.6c0.5-1,0.5-2.2,0.2-2.7
			c-1.1-2-2.6-2.9-3.9-3.3c0.3,0.4,0.6,0.8,0.9,1.3C180.1,70.2,180.2,71.4,179.6,72.4z"/>
		<path class="st1" d="M166.1,115.4c0.5,1.3,1.3,2.1,2.5,2.1c1.7,0,4.5-3.2,7.1-6.7c-0.5-1.5-0.8-3.3-0.8-5.1
			C172.1,109.9,168.3,114.7,166.1,115.4z"/>
		<path class="st1" d="M199.4,106.8c-2.7,3.9-6,8.1-8,8.6c0.5,1.2,1.4,2.1,2.6,2.1c1.4,0,3.7-2.3,5.9-5.2
			C199.5,110.7,199.4,108.7,199.4,106.8z"/>
		<path class="st1" d="M228,98.3c-0.3,0.7-2.6,5.8-4.3,7.6c-2.8,4.2-6.5,8.8-8.6,9.4c0.5,1.2,1.3,2.1,2.6,2.1
			c3.5,0,12.3-13.9,12.7-15.9C230.8,99.5,228,98.3,228,98.3z"/>
		<path class="st1" d="M190.8,84.4c-0.9-1.7-2-3-2.7-2.3c-1.4,1.4-5.9,12.2-4.6,19.5c0.4,2.4,1.5,2,2.8,0.3
			C185.9,95.2,189.3,86.5,190.8,84.4z"/>
		<path class="st1" d="M211.3,106.8c-2.7,3.9-6,8-8.1,8.6c0.5,1.3,1.3,2.1,2.5,2.1c1.4,0,3.7-2.3,6-5.2c-0.3-1.3-0.5-2.9-0.5-4.5
			C211.3,107.4,211.3,107.1,211.3,106.8z"/>
		<path class="st1" d="M200,88c-0.4,0.8-5.8,14.4-4.9,16.3c0.5,1.3,2.7-2,4.4-4.7c0.7-2.2,1.5-4.5,2.2-6.3c0.4-2,0.9-4,1.3-5.6
			c-0.9-1.5-2.1-2.1-3.2-2.3c0.1,0.1,0.2,0.3,0.3,0.4C200.2,86.3,200.4,86.9,200,88z"/>
		<path class="st1" d="M210.6,87.4c-0.4,0.8-4.6,15-3.7,16.9c0.5,1,2.1-1,3.6-3.4c1-4.8,2.9-11.1,3.2-11.6c0.5-1,0.3-1.7,0-2.2
			c-0.9-1.6-2.1-2.2-3.3-2.4c0.1,0.1,0.2,0.3,0.3,0.4C210.9,85.7,211.1,86.4,210.6,87.4z"/>
		<path class="st1" d="M196.1,83.3c-0.9-1.3-2.1-2.5-3.9-3.1c0.9,1,1.5,2.2,2,3.3C194.7,83.4,195.4,83.3,196.1,83.3z"/>
		<path class="st1" d="M219.3,99.6c-0.3,1.4-0.6,4.2-0.1,4.8c0.6,0.8,1.9-0.7,3-2.7c0,0,0-0.1,0-0.1c3.7-17.1,8-25,8-28.3
			c0-2.9-1.8-4.2-3.8-4.8c0.5,0.7,0.8,1.6,0.8,2.8C227.4,74.6,223.1,82.5,219.3,99.6z"/>
		<path class="st2" d="M223.7,105.9c2-3,3.5-5.6,3.6-6.4c0.4-2-2.4-3.2-2.4-3.2c-0.2,0.5-1.4,3.2-2.7,5.4c-1.2,2-2.4,3.5-3,2.7
			c-0.5-0.7-0.2-3.4,0.1-4.8c3.7-17.1,8-25,8-28.3c0-1.2-0.3-2.1-0.8-2.8c-2.2-3.1-7.8-2.5-7.8-2.5c1.4,3.1-0.5,10.2-0.5,10.2
			c-2.2,9.1-4,15.4-5.2,20.3c-0.4,0.8-1.4,2.7-2.5,4.4c-1.5,2.3-3.1,4.4-3.6,3.4c-0.9-2,3.3-16.2,3.7-16.9c0.5-1,0.3-1.7,0-2.2
			c-0.1-0.2-0.2-0.3-0.3-0.4c-2.3-3.4-6.4-1.6-6.4-1.6s-0.4,1.8-1.1,4.5c-0.4,1.6-0.8,3.6-1.3,5.6c-0.3,1.2-0.5,2.5-0.8,3.7
			c-0.3,0.6-0.8,1.6-1.4,2.6c-1.6,2.8-3.8,6-4.4,4.7c-0.9-2,4.5-15.6,4.9-16.3c0.5-1,0.3-1.7,0-2.2c-0.1-0.2-0.2-0.3-0.3-0.4
			c-1-1.5-2.4-2-3.6-2.1c-0.7-0.1-1.4,0-1.9,0.2c-0.4-1.1-1-2.3-2-3.3c-1.3-1.4-3.2-2.5-5.8-2.4c-0.5,0-0.9,0.1-1.4,0.3
			c-1.5,0.6-2.9,2-4.1,3.9c-2.5,4-4.3,10.1-5.2,14.8c-0.3,0.6-0.8,1.5-1.4,2.6c-1.6,2.8-4,6.2-4.5,4.9C169.2,103,173.8,89,177,80
			h5.2l0.7-2l0.7-2l-1.5,0l-3.7,0c0.7-2.1,1.2-3.5,1.3-3.6c0.5-1,0.5-2.2,0.2-2.7c-0.3-0.5-0.6-0.9-0.9-1.3
			c-2.2-2.7-5.2-2.2-5.2-2.2s-1.4,4.1-3.2,9.7h-5.3l-1.2,4h3.6h1.6c-0.2,0.7-0.4,1.3-0.6,2c-2.9,9.2-6,19.5-6.3,22.5
			c-0.5,4.4-0.2,10.9,3.2,10.9c0.1,0,0.3,0,0.5-0.1c2.2-0.6,6-5.5,8.8-9.7c0.1,1.8,0.3,3.6,0.8,5.1c0.6,1.8,1.7,3.1,3.5,3.2
			c0.4,0,0.7,0,1.1-0.1c2.1-0.4,4.6-4.2,6.9-8.6c0.1-0.2,0.2-0.4,0.3-0.6c0,0.2,0,0.4-0.1,0.7c-0.2,2-0.2,4.3,0.2,6.3
			c0.4,2.2,1.4,3.9,3.1,3.9c0.1,0,0.3,0,0.4-0.1c2-0.6,5.4-4.7,8-8.6c-0.1,1.9,0,3.9,0.4,5.5c0.5,1.9,1.4,3.2,2.9,3.2
			c0.1,0,0.3,0,0.5-0.1c2-0.6,5.4-4.7,8.1-8.6c0,0.3,0,0.6,0,0.9c0,1.6,0.1,3.2,0.5,4.5c0.5,1.8,1.4,3.1,2.9,3.1
			c0.1,0,0.3,0,0.4-0.1C217.3,114.7,221,110.1,223.7,105.9z M186.3,101.9c-1.3,1.7-2.4,2.1-2.8-0.3c-1.3-7.3,3.1-18.1,4.6-19.5
			c0.7-0.7,1.8,0.7,2.7,2.3c0.5,0.9,1,1.9,1.4,2.7c-0.8,2.5-1.8,6-2.7,9.2C188.5,98.4,187.3,100.6,186.3,101.9z"/>
	</g>
</g>
</svg>
